<svg viewBox="0 0 800 500" preserveAspectRatio="none" xmlns="http://www.w3.org/2000/svg" xmlns:xlink="http://www.w3.org/1999/xlink" width="100%" id="blobSvg">
  <g transform="translate(159.9668426513672, 29.230850219726562)">
    <path class="blob" d="M397.5,291Q421,332,388,357Q355,382,324,409Q293,436,245,458Q197,480,180,420Q163,360,96,358Q29,356,28,303Q27,250,72,218Q117,186,121.5,140.5Q126,95,167,80Q208,65,245,86.5Q282,108,340,86Q398,64,417,112Q436,160,405,205Q374,250,397.5,291Z" fill="#073673"></path>
  </g>
</svg>